M48
; DRILL file {KiCad 5.1.4} date Wed 21 Aug 2019 12:51:58 PM -03
; FORMAT={-:-/ absolute / inch / decimal}
; #@! TF.CreationDate,2019-08-21T12:51:58-03:00
; #@! TF.GenerationSoftware,Kicad,Pcbnew,5.1.4
FMAT,2
INCH
T1C0.0315
T2C0.0394
T3C0.0551
T4C0.0630
T5C0.1260
%
G90
G05
T1
X1.8602Y-1.8012
X1.8602Y-4.9508
X1.9508Y-1.6929
X1.9508Y-4.8425
X2.0177Y-1.8012
X2.0177Y-4.9508
X2.1457Y-1.6929
X2.1457Y-4.8425
X2.1949Y-1.9783
X2.1949Y-5.128
X2.3327Y-1.8406
X2.3327Y-4.9902
X2.3524Y-2.6476
X2.3524Y-2.7953
X2.3524Y-5.7972
X2.3524Y-5.9449
X2.3937Y-3.0787
X2.3937Y-3.1614
X2.3937Y-3.2264
X2.3937Y-3.3622
X2.3937Y-6.2283
X2.3937Y-6.311
X2.3937Y-6.376
X2.3937Y-6.5118
X2.5197Y-1.6043
X2.5197Y-1.7913
X2.5197Y-4.7539
X2.5197Y-4.9409
X2.6319Y-3.0787
X2.6319Y-3.1614
X2.6319Y-6.2283
X2.6319Y-6.311
X2.6969Y-1.7913
X2.6969Y-4.9409
X2.6988Y-1.6929
X2.6988Y-4.8425
X2.8937Y-1.7913
X2.8937Y-4.9409
X2.8957Y-1.6929
X2.8957Y-4.8425
X3.2677Y-1.6043
X3.2677Y-1.7913
X3.2677Y-4.7539
X3.2677Y-4.9409
X3.3465Y-2.815
X3.3465Y-5.9646
X3.4449Y-1.6929
X3.4449Y-4.8425
X3.5138Y-2.815
X3.5138Y-5.9646
X3.5335Y-2.4016
X3.5335Y-5.5512
X3.6437Y-1.6929
X3.6437Y-4.8425
X3.7343Y-3.1671
X3.7343Y-3.2913
X3.7343Y-6.3167
X3.7343Y-6.4409
X3.7697Y-2.4016
X3.7697Y-5.5512
X4.1102Y-3.0472
X4.1102Y-6.1969
X4.1105Y-3.1671
X4.1105Y-6.3167
X4.1122Y-3.3268
X4.1122Y-6.4764
X4.1929Y-1.6919
X4.1929Y-4.8415
X4.3898Y-1.6929
X4.3898Y-4.8425
X4.4252Y-3.0472
X4.4252Y-6.1969
X4.9429Y-1.6929
X4.9429Y-4.8425
X5.1398Y-1.6929
X5.1398Y-4.8425
X5.4626Y-2.4606
X5.4626Y-5.6102
X5.4724Y-2.3425
X5.4724Y-5.4921
X5.5433Y-3.4882
X5.5433Y-6.6378
X5.5807Y-2.5787
X5.5807Y-5.7283
X5.5856Y-2.4557
X5.5856Y-5.6053
X5.6772Y-3.622
X5.6772Y-6.7717
X5.685Y-1.6929
X5.685Y-4.8425
X5.878Y-1.6929
X5.878Y-4.8425
X6.0472Y-2.937
X6.0472Y-6.0866
X6.0512Y-2.626
X6.0512Y-5.7756
X6.1417Y-2.9724
X6.1417Y-6.122
X6.1437Y-2.7835
X6.1437Y-5.9331
X6.2008Y-2.687
X6.2008Y-5.8366
X6.2159Y-2.7854
X6.2159Y-5.935
X6.25Y-2.0669
X6.25Y-2.2343
X6.25Y-5.2165
X6.25Y-5.3839
X6.3504Y-2.3209
X6.3504Y-5.4705
X6.3504Y-2.0772
X6.3504Y-2.2272
X6.3504Y-2.5182
X6.3504Y-2.685
X6.3504Y-5.2268
X6.3504Y-5.3768
X6.3504Y-5.6678
X6.3504Y-5.8346
X6.41Y-2.7854
X6.41Y-5.935
X8.1004Y-5.1969
X8.1004Y-5.9449
X8.188Y-4.2717
X8.189Y-2.5866
X8.189Y-2.7795
X8.189Y-3.3248
X8.189Y-3.5217
X8.189Y-4.0748
X8.189Y-4.8209
X8.189Y-5.0197
X8.189Y-5.5689
X8.189Y-5.7657
X8.189Y-6.3189
X8.189Y-6.5138
X8.2874Y-5.1969
X8.2874Y-5.5709
X8.2874Y-5.7677
X8.2874Y-5.9449
X8.2972Y-6.4469
X8.2972Y-6.6043
X8.3366Y-6.1319
X8.4744Y-6.2697
X8.563Y-2.2146
X8.5733Y-2.1141
X8.7233Y-2.1141
X8.7303Y-2.2146
X8.8169Y-2.1142
X8.8386Y-2.9921
X8.8976Y-4.6949
X8.8976Y-4.9311
X8.9518Y-2.8789
X8.9567Y-3.002
X9.0143Y-2.1141
X9.0748Y-2.8839
X9.122Y-2.4134
X9.1437Y-6.1122
X9.1811Y-2.1141
X9.1831Y-2.2638
X9.2795Y-2.3209
X9.2815Y-2.0546
X9.2815Y-2.2487
X9.2913Y-6.1122
X9.311Y-4.9508
X9.311Y-5.1181
X9.4331Y-2.4173
X9.4685Y-2.3228
X9.5433Y-4.0394
X9.5433Y-4.3543
X9.5748Y-5.8327
X9.5748Y-6.0709
X9.6575Y-5.8327
X9.6575Y-6.0709
X9.6631Y-4.3541
X9.6631Y-4.7303
X9.7224Y-6.0709
X9.7874Y-4.7303
X9.8228Y-4.3524
X9.8583Y-6.0709
X9.9843Y-2.9213
X10.1181Y-2.7874
X1.8504Y-5.4724
X1.8504Y-5.5724
X1.8504Y-5.6724
X6.5251Y-2.7727
X6.5251Y-2.8727
X6.5251Y-2.9727
X6.5251Y-3.0727
X6.6251Y-2.8227
X6.6251Y-2.9227
X6.6251Y-3.0227
X6.6251Y-3.1227
X9.3128Y-4.4935
X9.3128Y-4.6856
X6.525Y-1.9516
X6.525Y-2.0516
X6.525Y-2.1516
X6.525Y-2.2516
X6.625Y-2.0016
X6.625Y-2.1016
X6.625Y-2.2016
X6.625Y-2.3016
X9.2687Y-1.9394
X9.3187Y-1.8394
X9.3687Y-1.9394
X9.4187Y-1.8394
X9.4687Y-1.9394
X9.5187Y-1.8394
X9.5687Y-1.9394
X9.6187Y-1.8394
X4.7691Y-3.4081
X4.9613Y-3.4081
X9.4193Y-5.1724
X9.4193Y-5.2724
X9.4193Y-5.3724
X9.4193Y-5.4724
X2.9921Y-6.0728
X3.0921Y-6.0728
X3.1921Y-6.0728
X3.2921Y-6.0728
X9.9042Y-3.5033
X9.9042Y-3.6954
X8.7431Y-4.1738
X8.7431Y-4.2738
X8.7431Y-4.3738
X8.7431Y-4.4738
X8.7431Y-4.5738
X8.7431Y-4.6738
X8.7431Y-4.7738
X8.7431Y-4.8738
X8.7431Y-4.9738
X8.7431Y-5.0738
X8.7431Y-5.1738
X8.7431Y-5.2738
X8.7431Y-5.3738
X8.7431Y-5.4738
X9.0431Y-4.1738
X9.0431Y-4.2738
X9.0431Y-4.3738
X9.0431Y-4.4738
X9.0431Y-4.5738
X9.0431Y-4.6738
X9.0431Y-4.7738
X9.0431Y-4.8738
X9.0431Y-4.9738
X9.0431Y-5.0738
X9.0431Y-5.1738
X9.0431Y-5.2738
X9.0431Y-5.3738
X9.0431Y-5.4738
X6.5251Y-5.9223
X6.5251Y-6.0223
X6.5251Y-6.1223
X6.5251Y-6.2223
X6.6251Y-5.9723
X6.6251Y-6.0723
X6.6251Y-6.1723
X6.6251Y-6.2723
X4.7691Y-6.5577
X4.9613Y-6.5577
X8.8189Y-6.6142
X8.9189Y-6.6142
X9.0189Y-6.6142
X2.9908Y-2.2471
X2.9908Y-2.5471
X3.0908Y-2.2471
X3.0908Y-2.5471
X3.1908Y-2.2471
X3.1908Y-2.5471
X3.2908Y-2.2471
X3.2908Y-2.5471
X3.3908Y-2.2471
X3.3908Y-2.5471
X3.4908Y-2.2471
X3.4908Y-2.5471
X3.5908Y-2.2471
X3.5908Y-2.5471
X3.6908Y-2.2471
X3.6908Y-2.5471
X3.7908Y-2.2471
X3.7908Y-2.5471
X3.8908Y-2.2471
X3.8908Y-2.5471
X3.9908Y-2.2471
X3.9908Y-2.5471
X4.0908Y-2.2471
X4.0908Y-2.5471
X4.1908Y-2.2471
X4.1908Y-2.5471
X4.2908Y-2.2471
X4.2908Y-2.5471
X1.8504Y-2.3228
X1.8504Y-2.4228
X1.8504Y-2.5228
X3.779Y-5.9664
X3.9711Y-5.9664
X2.9921Y-2.9232
X3.0921Y-2.9232
X3.1921Y-2.9232
X3.2921Y-2.9232
X8.4477Y-1.9396
X8.4977Y-1.8396
X8.5477Y-1.9396
X8.5977Y-1.8396
X8.6477Y-1.9396
X8.6977Y-1.8396
X8.7477Y-1.9396
X8.7977Y-1.8396
X2.9908Y-5.3967
X2.9908Y-5.6967
X3.0908Y-5.3967
X3.0908Y-5.6967
X3.1908Y-5.3967
X3.1908Y-5.6967
X3.2908Y-5.3967
X3.2908Y-5.6967
X3.3908Y-5.3967
X3.3908Y-5.6967
X3.4908Y-5.3967
X3.4908Y-5.6967
X3.5908Y-5.3967
X3.5908Y-5.6967
X3.6908Y-5.3967
X3.6908Y-5.6967
X3.7908Y-5.3967
X3.7908Y-5.6967
X3.8908Y-5.3967
X3.8908Y-5.6967
X3.9908Y-5.3967
X3.9908Y-5.6967
X4.0908Y-5.3967
X4.0908Y-5.6967
X4.1908Y-5.3967
X4.1908Y-5.6967
X4.2908Y-5.3967
X4.2908Y-5.6967
X6.525Y-5.1012
X6.525Y-5.2012
X6.525Y-5.3012
X6.525Y-5.4012
X6.625Y-5.1512
X6.625Y-5.2512
X6.625Y-5.3512
X6.625Y-5.4512
X3.779Y-2.8168
X3.9711Y-2.8168
T2
X8.7146Y-6.2382
X9.0138Y-6.2382
X2.2264Y-5.3681
X2.2264Y-5.6673
X2.2264Y-2.2185
X2.2264Y-2.5177
T3
X2.5735Y-3.4872
X2.7703Y-3.4872
X2.6969Y-4.7045
X2.8937Y-4.7045
X3.0906Y-4.7045
X4.9409Y-1.5549
X5.1378Y-1.5549
X5.3346Y-1.5549
X8.0509Y-4.626
X8.0509Y-4.8228
X8.0509Y-5.0197
X3.4449Y-1.5549
X3.6417Y-1.5549
X3.8386Y-1.5549
X8.0509Y-5.374
X8.0509Y-5.5709
X8.0509Y-5.7677
X9.9833Y-5.6943
X9.9833Y-5.8911
X2.5735Y-6.6369
X2.7703Y-6.6369
X2.0223Y-6.6369
X2.2191Y-6.6369
X9.9833Y-4.0407
X9.9833Y-4.2376
X3.4449Y-4.7045
X3.6417Y-4.7045
X3.8386Y-4.7045
X4.227Y-3.4872
X4.4239Y-3.4872
X3.6758Y-3.4872
X3.8727Y-3.4872
X8.0509Y-3.878
X8.0509Y-4.0748
X8.0509Y-4.2717
X4.227Y-6.6369
X4.4239Y-6.6369
X8.0509Y-3.1299
X8.0509Y-3.3268
X8.0509Y-3.5236
X8.0509Y-2.3872
X8.0509Y-2.584
X8.0509Y-2.7809
X9.9833Y-6.2454
X9.9833Y-6.4423
X2.0223Y-3.4872
X2.2191Y-3.4872
X3.6758Y-6.6369
X3.8727Y-6.6369
X3.1246Y-6.6369
X3.3215Y-6.6369
X8.0509Y-6.122
X8.0509Y-6.3189
X8.0509Y-6.5157
X4.1929Y-4.7045
X4.3898Y-4.7045
X4.5866Y-4.7045
X4.9409Y-4.7045
X5.1378Y-4.7045
X5.3346Y-4.7045
X5.6837Y-4.7045
X5.8806Y-4.7045
X6.0774Y-4.7045
X1.9488Y-1.5549
X2.1457Y-1.5549
X2.3425Y-1.5549
X9.9833Y-4.5919
X9.9833Y-4.7887
X1.9488Y-4.7045
X2.1457Y-4.7045
X2.3425Y-4.7045
X4.1929Y-1.5549
X4.3898Y-1.5549
X4.5866Y-1.5549
X3.1246Y-3.4872
X3.3215Y-3.4872
X5.6837Y-1.5549
X5.8806Y-1.5549
X6.0774Y-1.5549
X2.6969Y-1.5549
X2.8937Y-1.5549
X3.0906Y-1.5549
X9.9833Y-5.1431
X9.9833Y-5.3399
T4
X8.3176Y-1.7097
X8.9278Y-1.7097
X6.7549Y-4.9711
X6.7549Y-5.5813
X6.755Y-2.6426
X6.755Y-3.2528
X6.7549Y-1.8215
X6.7549Y-2.4317
X9.1386Y-1.7095
X9.7489Y-1.7095
X6.755Y-5.7922
X6.755Y-6.4024
T5
X7.0813Y-1.3514
X6.8751Y-5.8723
X6.8751Y-6.3223
X7.8573Y-6.8557
X10.1703Y-1.3635
X8.3977Y-1.5896
X8.8477Y-1.5896
X7.0813Y-4.501
X1.6089Y-4.5109
X7.8475Y-1.3832
X7.101Y-3.6743
X7.101Y-6.8239
X6.875Y-5.0512
X6.875Y-5.5012
X1.6089Y-3.6841
X6.8751Y-2.7227
X6.8751Y-3.1727
X10.1802Y-6.8557
X6.875Y-1.9016
X6.875Y-2.3516
X1.6089Y-1.3613
X1.6089Y-6.8337
X9.2187Y-1.5894
X9.6687Y-1.5894
T0
M30
